<svg xmlns="http://www.w3.org/2000/svg" viewBox="0 0 395.57 48.06"><defs><style>.cls-1{fill:#080734;}</style></defs><title>资源 1</title><g id="图层_2" data-name="图层 2"><g id="图层_1-2" data-name="图层 1"><rect class="cls-1" x="96.56" y="0.45" width="4.91" height="3.34" rx="0.49" ry="0.49"/><path class="cls-1" d="M101.41,13H92.78V8.76h11.4a.49.49,0,0,0,.49-.49V5.1a.49.49,0,0,0-.49-.49H92.78V.88a.49.49,0,0,0-.49-.49H88.49A.49.49,0,0,0,88,.88V4.61H76.65a.49.49,0,0,0-.49.49V8.27a.49.49,0,0,0,.49.49H88V13H79.47a3.38,3.38,0,0,0-3.38,3.38V47.54a.49.49,0,0,0,.49.49h3.81a.49.49,0,0,0,.49-.49V17.81a.62.62,0,0,1,.62-.62H88v5.36H83.13a.49.49,0,0,0-.49.49v3.17a.49.49,0,0,0,.49.49H88v5.37H83.2a.49.49,0,0,0-.49.49v3.17a.49.49,0,0,0,.49.49H88V47.54a.49.49,0,0,0,.49.49h3.81a.49.49,0,0,0,.49-.49V36.23h4.8a.49.49,0,0,0,.49-.49V32.56a.49.49,0,0,0-.49-.49h-4.8V26.71h4.86a.49.49,0,0,0,.49-.49V23a.49.49,0,0,0-.49-.49H92.78V17.19h6.59a.62.62,0,0,1,.62.62v25.1a1,1,0,0,1-1,1H97.52a.49.49,0,0,0-.49.49v3.17a.49.49,0,0,0,.49.49h3.31a4,4,0,0,0,4-4V16.41A3.38,3.38,0,0,0,101.41,13Z"/><path class="cls-1" d="M73.71,4.53H64.9L65.53,1A.49.49,0,0,0,65,.43H61.21a.49.49,0,0,0-.48.4l-.66,3.7h-3a.49.49,0,0,0-.49.49V8.27a.49.49,0,0,0,.49.49h2.21L56.8,23.89a2.22,2.22,0,0,0,2.31,2.81H65v6.52c-3.38.16-6.62.19-7.81.19a.49.49,0,0,0-.48.49l0,3.82a.49.49,0,0,0,.49.49h.4c3,0,5.42,0,7.45-.08v9.42a.49.49,0,0,0,.49.49h3.81a.49.49,0,0,0,.49-.49V37.81a21.55,21.55,0,0,0,3.93-.67.49.49,0,0,0,.34-.47v-3.9a.49.49,0,0,0-.61-.47,24.1,24.1,0,0,1-3.67.59V26.7h3.88a.49.49,0,0,0,.49-.49V23a.49.49,0,0,0-.49-.49H69.83V13.52a.49.49,0,0,0-.49-.49H65.53a.49.49,0,0,0-.49.49v8.95h-3L64.15,8.76h9.56a.49.49,0,0,0,.49-.49V5A.49.49,0,0,0,73.71,4.53Z"/><path class="cls-1" d="M161.85,30.07h-8.47V26.54a.49.49,0,0,0-.49-.49h-3.81a.49.49,0,0,0-.49.49v3.53H114.86a.49.49,0,0,0-.49.49v3.81a.49.49,0,0,0,.49.49h33.74V43.3a.59.59,0,0,1-.59.59h-6.67a.49.49,0,0,0-.49.49v3.17a.49.49,0,0,0,.49.49h9.12a2.92,2.92,0,0,0,2.92-2.93V34.86h8.47a.49.49,0,0,0,.49-.49V30.56A.49.49,0,0,0,161.85,30.07Z"/><path class="cls-1" d="M120.2,24.25h32A25.1,25.1,0,0,0,161,22.93a1.86,1.86,0,0,0,1.17-1.72l0-3.57a.3.3,0,0,0-.46-.26c-2.81,1.61-6.57,1.88-9.64,2.09H122.3a2,2,0,0,1-2-2v-2h.15l34.4,0a3.38,3.38,0,0,0,3.38-3.38v-7a3.38,3.38,0,0,0-3.38-3.38h-36a3.38,3.38,0,0,0-3.38,3.38V19.6A4.65,4.65,0,0,0,120.2,24.25Zm.14-17.16a.62.62,0,0,1,.62-.62h31.9a.62.62,0,0,1,.62.62v3a.62.62,0,0,1-.62.62H121a.62.62,0,0,1-.62-.62Z"/><path class="cls-1" d="M127.9,37.09a.49.49,0,0,0-.63,0l-2.49,2.56a.49.49,0,0,0,0,.74l4.92,3.82a.49.49,0,0,0,.65-.05l2.38-2.54a.49.49,0,0,0-.07-.73Z"/><path class="cls-1" d="M219.46,43.81h-21V39.92h13.47a.5.5,0,0,0,.5-.5V36.25a.5.5,0,0,0-.5-.5H198.41v-4a.47.47,0,0,0-.47-.47h-3.86a.47.47,0,0,0-.47.47v4H180.16a.5.5,0,0,0-.5.5v3.18a.5.5,0,0,0,.5.5h13.47v3.89h-21a.51.51,0,0,0-.53.49v3.25a.51.51,0,0,0,.53.49h46.88a.51.51,0,0,0,.53-.49V44.3A.51.51,0,0,0,219.46,43.81Z"/><path class="cls-1" d="M335.88,28.26H314.8v-2.6a.47.47,0,0,0-.47-.47h-3.86a.47.47,0,0,0-.47.47v2.6H288.94a.54.54,0,0,0-.53.56v3.69a.54.54,0,0,0,.53.56h13.15a35.22,35.22,0,0,1-13.15,9.14.81.81,0,0,0-.53.68V46.8c0,.65.39.55.58.49,11-3.44,17.72-12,19.34-14.22H310V47.57a.47.47,0,0,0,.47.47h3.86a.47.47,0,0,0,.47-.47V33.07h1.68c1.61,2.24,8.34,10.78,19.34,14.22.19.06.58.16.58-.49V42.88a.81.81,0,0,0-.53-.68,35.22,35.22,0,0,1-13.15-9.14h13.15a.54.54,0,0,0,.53-.56V28.82A.54.54,0,0,0,335.88,28.26Z"/><path class="cls-1" d="M46.54,10.35H32.29V7h13a.5.5,0,0,0,.5-.5V3.33a.5.5,0,0,0-.5-.5h-13v-2a.5.5,0,0,0-.5-.5H28a.5.5,0,0,0-.5.5v2H15.22a.5.5,0,0,0-.5.5V6.49a.5.5,0,0,0,.5.5H27.51v3.36H13.95a.5.5,0,0,0-.5.5V14a.5.5,0,0,0,.5.5H46.54A.5.5,0,0,0,47,14V10.85A.5.5,0,0,0,46.54,10.35Z"/><path class="cls-1" d="M46.09,33.2c-2.57,1-8.06,1.24-8.06,1.24l-.1-.14a21.84,21.84,0,0,1-2.47-4.1l-.21-.45h7.6a3.38,3.38,0,0,0,3.38-3.38V20.25a3.38,3.38,0,0,0-3.38-3.38H18a3.38,3.38,0,0,0-3.38,3.38v6.13A3.38,3.38,0,0,0,18,29.76h6.41l-.69.56a27.33,27.33,0,0,1-9.69,5.17.48.48,0,0,0-.35.47V39.7a.49.49,0,0,0,.62.47A30.55,30.55,0,0,0,18.9,38.5l.44-.21v7.07a2.42,2.42,0,0,0,2.43,2.42A50.22,50.22,0,0,0,31.68,47a2,2,0,0,0,1.49-1.83V42.65a.31.31,0,0,0-.44-.27,22,22,0,0,1-5.88,1.23,14.88,14.88,0,0,1-2.24,0,.48.48,0,0,1-.48-.48v-7.6l.14-.09a36.07,36.07,0,0,0,5.8-4.89l.32-.33.19.42A38.29,38.29,0,0,0,46,47.49a.31.31,0,0,0,.47-.26l.06-4.37a.5.5,0,0,0-.23-.42,22.7,22.7,0,0,1-4.94-4.1l-.18-.23.65,0a13.66,13.66,0,0,0,4.68-1,.48.48,0,0,0,.28-.44v-3A.49.49,0,0,0,46.09,33.2Zm-26-7.67a.62.62,0,0,1-.62-.62V21.72a.62.62,0,0,1,.62-.62H40.82a.62.62,0,0,1,.62.62V24.9a.62.62,0,0,1-.62.62Z"/><path class="cls-1" d="M11.61,2.48,8.52,5.57A23.5,23.5,0,0,0,6.4,3c-.52-.55-1-1.08-1.54-1.58L3.58.15a.5.5,0,0,0-.7,0L.34,2.68a.5.5,0,0,0,0,.71L3,6A17.66,17.66,0,0,1,5.23,8.87L.55,13.55A1.87,1.87,0,0,0,0,14.87v3.86a.5.5,0,0,0,.85.35l5.63-5.63V23.89L.55,29.83A1.88,1.88,0,0,0,0,31.15V35a.5.5,0,0,0,.85.35l5.63-5.63V36c0,2.81-1.44,4.79-3.77,6.6L.4,44.24a.5.5,0,0,0-.11.69l2.08,2.89a.5.5,0,0,0,.7.11l3.2-2.4A12.13,12.13,0,0,0,11,36V13.2a12.51,12.51,0,0,0-.56-3.75l1.71-1.71a.94.94,0,0,0,.27-.66V2.84A.5.5,0,0,0,11.61,2.48Z"/><path class="cls-1" d="M318.44,24.09h12.87a3.38,3.38,0,0,0,3.38-3.38V5.87a3.38,3.38,0,0,0-3.38-3.38H318.44a3.38,3.38,0,0,0-3.38,3.38V20.71A3.38,3.38,0,0,0,318.44,24.09Zm1.4-16.75a.62.62,0,0,1,.62-.62h8.82a.62.62,0,0,1,.62.62V19.23a.62.62,0,0,1-.62.62h-8.82a.62.62,0,0,1-.62-.62Z"/><path class="cls-1" d="M367.51,12.73V9.55a.47.47,0,0,0-.47-.47h-7.75V.85a.47.47,0,0,0-.47-.47h-3.19a.47.47,0,0,0-.47.47V9.08h-7.75a.47.47,0,0,0-.47.47v3.19a.47.47,0,0,0,.47.47h7.75V47.6a.47.47,0,0,0,.47.47h3.19a.47.47,0,0,0,.47-.47V13.2H367A.47.47,0,0,0,367.51,12.73Z"/><path class="cls-1" d="M247.57,4.18H231a.5.5,0,0,0-.5.5V8.49a.5.5,0,0,0,.5.5h5c-.6,4.9-2.84,13.7-7.95,19.86a.59.59,0,0,0,0,.72l2.32,3.19s.16.21.3.21a.64.64,0,0,0,.42-.26c.57-.65,1.07-1.36,1.59-2.05v14A3.38,3.38,0,0,0,236.08,48h7.67a3.38,3.38,0,0,0,3.38-3.38V24.19a3.38,3.38,0,0,0-3.38-3.38H238A50,50,0,0,0,240.88,9h6.69a.5.5,0,0,0,.5-.5V4.68A.5.5,0,0,0,247.57,4.18ZM238.1,25h3.62a.62.62,0,0,1,.62.62V43.17a.62.62,0,0,1-.62.62H238.1a.62.62,0,0,1-.62-.62V25.67A.62.62,0,0,1,238.1,25Z"/><path class="cls-1" d="M221.11,35.33a28.77,28.77,0,0,1-6.5-3.4,36.22,36.22,0,0,1-2.95-2.38.38.38,0,0,0-.26-.1h8A.51.51,0,0,0,220,29V25.7a.51.51,0,0,0-.53-.49h-4.69V7.82H217a.5.5,0,0,0,.51-.49V4.08a.5.5,0,0,0-.51-.49h-2.27V.91a.47.47,0,0,0-.47-.47h-3.86a.47.47,0,0,0-.47.47V3.59H182.05V.91a.47.47,0,0,0-.47-.47h-3.86a.47.47,0,0,0-.47.47V3.59H175a.5.5,0,0,0-.51.49V7.33a.5.5,0,0,0,.51.49h2.27V25.21h-4.69a.51.51,0,0,0-.53.49V29a.51.51,0,0,0,.53.49h8a.38.38,0,0,0-.26.1,36.19,36.19,0,0,1-2.95,2.38,28.78,28.78,0,0,1-6.5,3.4.43.43,0,0,0-.27.43v3.81c0,.52.5.36.5.36a39.85,39.85,0,0,0,8.53-4.28,37.93,37.93,0,0,0,6.77-6.2h19.14a37.94,37.94,0,0,0,6.77,6.2,39.85,39.85,0,0,0,8.53,4.28s.5.16.5-.36V35.75A.43.43,0,0,0,221.11,35.33ZM210,25.21H182.05v-3H210ZM210,18H182.05V15H210Zm0-7.21H182.05v-3H210Z"/><path class="cls-1" d="M278.22,4.33h-3.83a.48.48,0,0,0-.48.48V18.92a.63.63,0,0,1-.63.63h-6.44V.85a.47.47,0,0,0-.47-.47h-3.86a.47.47,0,0,0-.47.47V19.55h-6.44a.63.63,0,0,1-.63-.63V4.81a.48.48,0,0,0-.48-.48h-3.83a.48.48,0,0,0-.48.48V21a3.28,3.28,0,0,0,3.28,3.28h8.57V43.26h-6.44a.63.63,0,0,1-.63-.63V28.52a.48.48,0,0,0-.48-.48h-3.83a.48.48,0,0,0-.48.48V44.76A3.28,3.28,0,0,0,253.48,48h21.93a3.28,3.28,0,0,0,3.28-3.28V28.52a.48.48,0,0,0-.48-.48h-3.83a.48.48,0,0,0-.48.48V42.63a.63.63,0,0,1-.63.63h-6.44V24.32h8.57A3.28,3.28,0,0,0,278.69,21V4.81A.48.48,0,0,0,278.22,4.33Z"/><path class="cls-1" d="M290.46,25.13a.65.65,0,0,0,.51-.19A25.71,25.71,0,0,0,301.09,8.72h5a.63.63,0,0,1,.63.63v9.94a.59.59,0,0,1-.59.59h-5.29a.49.49,0,0,0-.49.49v3.17a.49.49,0,0,0,.49.49h7.75a2.92,2.92,0,0,0,2.92-2.92V7.23a3.29,3.29,0,0,0-3.29-3.29h-6.68v-3A.47.47,0,0,0,301,.46h-3.81a.44.44,0,0,0-.48.48v3H289.4a.49.49,0,0,0-.49.49V8.23a.49.49,0,0,0,.49.49h6.82a21,21,0,0,1-8.1,12.35.75.75,0,0,0-.32.39.66.66,0,0,0,.15.48L290,24.81S290.27,25.09,290.46,25.13Z"/><path class="cls-1" d="M384.88,38.31a.67.67,0,0,0,.69.55h2.95a.48.48,0,0,0,.49-.61L388,28a.61.61,0,0,0-.64-.5h-2.9a.57.57,0,0,0-.59.58l.49,5.17h-7.14a.55.55,0,0,1-.54-.63l2.41-15.21s.09-.62-.43-.62h-3.12a.65.65,0,0,0-.6.53l-2.6,16.45a3.12,3.12,0,0,0,3.08,3.61h9.34Z"/><path class="cls-1" d="M392.28,5.77H375.43c.09-1.54.16-3.16.2-4.89,0-.22,0-.65-.65-.65h-3.25c-.38,0-.56.42-.56.63-.22,10.56-1.63,16.34-3.31,18.77a1.71,1.71,0,0,0-.45,1.06v3.94c0,.41.53.5.79.4,3.56-1.43,5.8-6.16,6.81-14.47h15.15a.63.63,0,0,1,.63.63V42.7a.59.59,0,0,1-.59.59H383a.49.49,0,0,0-.49.49v3.75A.49.49,0,0,0,383,48h9.67a2.92,2.92,0,0,0,2.92-2.92v-36A3.29,3.29,0,0,0,392.28,5.77Z"/><path class="cls-1" d="M352.61,15.31h-3a.53.53,0,0,0-.53.54,201.69,201.69,0,0,1-1.94,24.75s-.14.53.36.53h3.16c.55,0,.61-.3.64-.45a211.87,211.87,0,0,0,1.9-24.8A.55.55,0,0,0,352.61,15.31Z"/><path class="cls-1" d="M365.44,15.85a.53.53,0,0,0-.53-.54h-3a.55.55,0,0,0-.55.57,211.87,211.87,0,0,0,1.9,24.8c0,.15.09.45.64.45H367c.5,0,.36-.53.36-.53A201.69,201.69,0,0,1,365.44,15.85Z"/></g></g></svg>